<mxfile host="app.diagrams.net" modified="2021-06-16T09:27:08.771Z" agent="5.0 (Windows NT 10.0; Win64; x64) AppleWebKit/537.36 (KHTML, like Gecko) Chrome/91.0.4472.77 Safari/537.36" etag="00PRHHhdSm-VlNTg_uP2" version="14.7.7" type="github">
  <diagram name="Page-1" id="97916047-d0de-89f5-080d-49f4d83e522f">
    <mxGraphModel dx="2031" dy="1089" grid="1" gridSize="10" guides="1" tooltips="1" connect="1" arrows="1" fold="1" page="1" pageScale="1.5" pageWidth="1169" pageHeight="827" background="none" math="0" shadow="0">
      <root>
        <mxCell id="0" />
        <mxCell id="1" parent="0" />
        <mxCell id="PWpzA00NkENAHucT2g0A-62" style="edgeStyle=orthogonalEdgeStyle;rounded=0;orthogonalLoop=1;jettySize=auto;html=1;entryX=0;entryY=0.5;entryDx=0;entryDy=0;fontSize=17;" edge="1" parent="1" source="2" target="PWpzA00NkENAHucT2g0A-57">
          <mxGeometry relative="1" as="geometry" />
        </mxCell>
        <mxCell id="PWpzA00NkENAHucT2g0A-76" style="edgeStyle=orthogonalEdgeStyle;rounded=0;orthogonalLoop=1;jettySize=auto;html=1;entryX=0;entryY=0.5;entryDx=0;entryDy=0;fontSize=17;" edge="1" parent="1" source="2" target="PWpzA00NkENAHucT2g0A-63">
          <mxGeometry relative="1" as="geometry" />
        </mxCell>
        <mxCell id="PWpzA00NkENAHucT2g0A-78" style="edgeStyle=orthogonalEdgeStyle;rounded=0;orthogonalLoop=1;jettySize=auto;html=1;entryX=0;entryY=0.5;entryDx=0;entryDy=0;fontSize=17;" edge="1" parent="1" source="2" target="PWpzA00NkENAHucT2g0A-65">
          <mxGeometry relative="1" as="geometry" />
        </mxCell>
        <mxCell id="PWpzA00NkENAHucT2g0A-79" style="edgeStyle=orthogonalEdgeStyle;rounded=0;orthogonalLoop=1;jettySize=auto;html=1;entryX=0;entryY=0.5;entryDx=0;entryDy=0;fontSize=17;" edge="1" parent="1" source="2" target="PWpzA00NkENAHucT2g0A-66">
          <mxGeometry relative="1" as="geometry" />
        </mxCell>
        <mxCell id="PWpzA00NkENAHucT2g0A-80" style="edgeStyle=orthogonalEdgeStyle;rounded=0;orthogonalLoop=1;jettySize=auto;html=1;entryX=0;entryY=0.5;entryDx=0;entryDy=0;fontSize=17;" edge="1" parent="1" source="2" target="PWpzA00NkENAHucT2g0A-67">
          <mxGeometry relative="1" as="geometry" />
        </mxCell>
        <mxCell id="PWpzA00NkENAHucT2g0A-81" style="edgeStyle=orthogonalEdgeStyle;rounded=0;orthogonalLoop=1;jettySize=auto;html=1;entryX=0;entryY=0.5;entryDx=0;entryDy=0;fontSize=17;" edge="1" parent="1" source="2" target="PWpzA00NkENAHucT2g0A-68">
          <mxGeometry relative="1" as="geometry" />
        </mxCell>
        <mxCell id="PWpzA00NkENAHucT2g0A-82" style="edgeStyle=orthogonalEdgeStyle;rounded=0;orthogonalLoop=1;jettySize=auto;html=1;entryX=0;entryY=0.5;entryDx=0;entryDy=0;fontSize=17;" edge="1" parent="1" source="2" target="PWpzA00NkENAHucT2g0A-69">
          <mxGeometry relative="1" as="geometry" />
        </mxCell>
        <mxCell id="PWpzA00NkENAHucT2g0A-83" style="edgeStyle=orthogonalEdgeStyle;rounded=0;orthogonalLoop=1;jettySize=auto;html=1;entryX=0;entryY=0.5;entryDx=0;entryDy=0;fontSize=17;" edge="1" parent="1" source="2" target="PWpzA00NkENAHucT2g0A-71">
          <mxGeometry relative="1" as="geometry" />
        </mxCell>
        <mxCell id="PWpzA00NkENAHucT2g0A-84" style="edgeStyle=orthogonalEdgeStyle;rounded=0;orthogonalLoop=1;jettySize=auto;html=1;entryX=0;entryY=0.5;entryDx=0;entryDy=0;fontSize=17;" edge="1" parent="1" source="2" target="PWpzA00NkENAHucT2g0A-72">
          <mxGeometry relative="1" as="geometry" />
        </mxCell>
        <mxCell id="PWpzA00NkENAHucT2g0A-85" style="edgeStyle=orthogonalEdgeStyle;rounded=0;orthogonalLoop=1;jettySize=auto;html=1;entryX=0;entryY=0.5;entryDx=0;entryDy=0;fontSize=17;" edge="1" parent="1" source="2" target="PWpzA00NkENAHucT2g0A-74">
          <mxGeometry relative="1" as="geometry" />
        </mxCell>
        <mxCell id="PWpzA00NkENAHucT2g0A-86" style="edgeStyle=orthogonalEdgeStyle;rounded=0;orthogonalLoop=1;jettySize=auto;html=1;entryX=0;entryY=0.5;entryDx=0;entryDy=0;fontSize=17;" edge="1" parent="1" source="2" target="PWpzA00NkENAHucT2g0A-73">
          <mxGeometry relative="1" as="geometry" />
        </mxCell>
        <mxCell id="PWpzA00NkENAHucT2g0A-87" style="edgeStyle=orthogonalEdgeStyle;rounded=0;orthogonalLoop=1;jettySize=auto;html=1;entryX=0;entryY=0.5;entryDx=0;entryDy=0;fontSize=17;" edge="1" parent="1" source="2" target="PWpzA00NkENAHucT2g0A-75">
          <mxGeometry relative="1" as="geometry" />
        </mxCell>
        <mxCell id="PWpzA00NkENAHucT2g0A-88" style="edgeStyle=orthogonalEdgeStyle;rounded=0;orthogonalLoop=1;jettySize=auto;html=1;entryX=0;entryY=0.5;entryDx=0;entryDy=0;fontSize=17;" edge="1" parent="1" source="2" target="PWpzA00NkENAHucT2g0A-64">
          <mxGeometry relative="1" as="geometry" />
        </mxCell>
        <mxCell id="PWpzA00NkENAHucT2g0A-89" style="edgeStyle=orthogonalEdgeStyle;rounded=0;orthogonalLoop=1;jettySize=auto;html=1;entryX=0;entryY=0.5;entryDx=0;entryDy=0;fontSize=17;" edge="1" parent="1" source="2" target="PWpzA00NkENAHucT2g0A-70">
          <mxGeometry relative="1" as="geometry" />
        </mxCell>
        <mxCell id="2" value="HikCentral Professional" style="rounded=1;fillColor=#dae8fc;strokeColor=#6c8ebf;shadow=1;fontStyle=1;fontSize=17;" parent="1" vertex="1">
          <mxGeometry x="170" y="570" width="200" height="60" as="geometry" />
        </mxCell>
        <mxCell id="PWpzA00NkENAHucT2g0A-57" value="通用" style="rounded=1;fillColor=#dae8fc;strokeColor=#6c8ebf;shadow=1;fontStyle=1;fontSize=17;" vertex="1" parent="1">
          <mxGeometry x="520" y="110" width="130" height="60" as="geometry" />
        </mxCell>
        <mxCell id="PWpzA00NkENAHucT2g0A-63" value="视频" style="rounded=1;fillColor=#dae8fc;strokeColor=#6c8ebf;shadow=1;fontStyle=1;fontSize=17;" vertex="1" parent="1">
          <mxGeometry x="520" y="182" width="130" height="60" as="geometry" />
        </mxCell>
        <mxCell id="PWpzA00NkENAHucT2g0A-64" value="访问控制" style="rounded=1;fillColor=#dae8fc;strokeColor=#6c8ebf;shadow=1;fontStyle=1;fontSize=17;" vertex="1" parent="1">
          <mxGeometry x="520" y="253" width="130" height="60" as="geometry" />
        </mxCell>
        <mxCell id="PWpzA00NkENAHucT2g0A-65" value="车辆" style="rounded=1;fillColor=#dae8fc;strokeColor=#6c8ebf;shadow=1;fontStyle=1;fontSize=17;" vertex="1" parent="1">
          <mxGeometry x="520" y="325" width="130" height="60" as="geometry" />
        </mxCell>
        <mxCell id="PWpzA00NkENAHucT2g0A-66" value="访客" style="rounded=1;fillColor=#dae8fc;strokeColor=#6c8ebf;shadow=1;fontStyle=1;fontSize=17;" vertex="1" parent="1">
          <mxGeometry x="520" y="396" width="130" height="60" as="geometry" />
        </mxCell>
        <mxCell id="PWpzA00NkENAHucT2g0A-67" value="考勤" style="rounded=1;fillColor=#dae8fc;strokeColor=#6c8ebf;shadow=1;fontStyle=1;fontSize=17;" vertex="1" parent="1">
          <mxGeometry x="520" y="468" width="130" height="60" as="geometry" />
        </mxCell>
        <mxCell id="PWpzA00NkENAHucT2g0A-68" value="智能分析" style="rounded=1;fillColor=#dae8fc;strokeColor=#6c8ebf;shadow=1;fontStyle=1;fontSize=17;" vertex="1" parent="1">
          <mxGeometry x="520" y="539" width="130" height="60" as="geometry" />
        </mxCell>
        <mxCell id="PWpzA00NkENAHucT2g0A-69" value="信息发布" style="rounded=1;fillColor=#dae8fc;strokeColor=#6c8ebf;shadow=1;fontStyle=1;fontSize=17;" vertex="1" parent="1">
          <mxGeometry x="520" y="611" width="130" height="60" as="geometry" />
        </mxCell>
        <mxCell id="PWpzA00NkENAHucT2g0A-70" value="广播终端" style="rounded=1;fillColor=#dae8fc;strokeColor=#6c8ebf;shadow=1;fontStyle=1;fontSize=17;" vertex="1" parent="1">
          <mxGeometry x="520" y="682" width="130" height="60" as="geometry" />
        </mxCell>
        <mxCell id="PWpzA00NkENAHucT2g0A-71" value="安检" style="rounded=1;fillColor=#dae8fc;strokeColor=#6c8ebf;shadow=1;fontStyle=1;fontSize=17;" vertex="1" parent="1">
          <mxGeometry x="520" y="754" width="130" height="60" as="geometry" />
        </mxCell>
        <mxCell id="PWpzA00NkENAHucT2g0A-72" value="报警侦测" style="rounded=1;fillColor=#dae8fc;strokeColor=#6c8ebf;shadow=1;fontStyle=1;fontSize=17;" vertex="1" parent="1">
          <mxGeometry x="520" y="825" width="130" height="60" as="geometry" />
        </mxCell>
        <mxCell id="PWpzA00NkENAHucT2g0A-73" value="实时测温" style="rounded=1;fillColor=#dae8fc;strokeColor=#6c8ebf;shadow=1;fontStyle=1;fontSize=17;" vertex="1" parent="1">
          <mxGeometry x="520" y="897" width="130" height="60" as="geometry" />
        </mxCell>
        <mxCell id="PWpzA00NkENAHucT2g0A-74" value="图上监控" style="rounded=1;fillColor=#dae8fc;strokeColor=#6c8ebf;shadow=1;fontStyle=1;fontSize=17;" vertex="1" parent="1">
          <mxGeometry x="520" y="968" width="130" height="60" as="geometry" />
        </mxCell>
        <mxCell id="PWpzA00NkENAHucT2g0A-75" value="运维" style="rounded=1;fillColor=#dae8fc;strokeColor=#6c8ebf;shadow=1;fontStyle=1;fontSize=17;" vertex="1" parent="1">
          <mxGeometry x="520" y="1040" width="130" height="60" as="geometry" />
        </mxCell>
      </root>
    </mxGraphModel>
  </diagram>
</mxfile>
